<svg width="28" height="28" viewBox="0 0 28 28" fill="none" xmlns="http://www.w3.org/2000/svg">
<path fill-rule="evenodd" clip-rule="evenodd" d="M17.0106 14.4925C16.7373 14.7659 16.2941 14.7659 16.0207 14.4925L10.9975 9.4693C10.7241 9.19593 10.7241 8.75272 10.9975 8.47935V8.47935C11.2708 8.20598 11.714 8.20598 11.9874 8.47935L17.0106 13.5026C17.284 13.776 17.284 14.2192 17.0106 14.4925V14.4925Z" fill="#171F26"/>
<path fill-rule="evenodd" clip-rule="evenodd" d="M16.9993 13.5109C17.2722 13.7839 17.2722 14.2264 16.9993 14.4994L11.9773 19.5213C11.7043 19.7943 11.2618 19.7943 10.9889 19.5213V19.5213C10.7159 19.2484 10.7159 18.8058 10.9889 18.5329L16.0108 13.5109C16.2838 13.238 16.7263 13.238 16.9993 13.5109V13.5109Z" fill="#171F26"/>
</svg>
