<svg width="28" height="28" viewBox="0 0 28 28" fill="none" xmlns="http://www.w3.org/2000/svg">
<path fill-rule="evenodd" clip-rule="evenodd" d="M10.9896 13.5075C11.263 13.2341 11.7062 13.2341 11.9796 13.5075L17.0028 18.5307C17.2762 18.8041 17.2762 19.2473 17.0028 19.5207V19.5207C16.7294 19.794 16.2862 19.794 16.0128 19.5207L10.9896 14.4974C10.7162 14.2241 10.7162 13.7808 10.9896 13.5075V13.5075Z" fill="#171F26"/>
<path fill-rule="evenodd" clip-rule="evenodd" d="M11.001 14.4891C10.728 14.2161 10.728 13.7736 11.001 13.5006L16.0229 8.47868C16.2959 8.20572 16.7384 8.20572 17.0114 8.47868V8.47868C17.2843 8.75163 17.2843 9.19417 17.0114 9.46712L11.9894 14.4891C11.7165 14.762 11.2739 14.762 11.001 14.4891V14.4891Z" fill="#171F26"/>
</svg>
