<svg width="28" height="28" viewBox="0 0 28 28" fill="none" xmlns="http://www.w3.org/2000/svg">
<path fill-rule="evenodd" clip-rule="evenodd" d="M4 14C4 8.47715 8.47715 4 14 4C19.5228 4 24 8.47715 24 14C24 19.5228 19.5228 24 14 24C8.47715 24 4 19.5228 4 14ZM18.2426 18.2426C17.9693 18.516 17.526 18.516 17.2527 18.2426L14 14.9899L10.7473 18.2427C10.4739 18.516 10.0307 18.516 9.7573 18.2427C9.48394 17.9693 9.48394 17.5261 9.7573 17.2527L13.0101 14L9.75734 10.7473C9.48398 10.4739 9.48398 10.0307 9.75734 9.7573C10.0307 9.48394 10.4739 9.48394 10.7473 9.7573L14 13.01L17.2526 9.75737C17.526 9.48401 17.9692 9.48401 18.2426 9.75737C18.516 10.0307 18.516 10.474 18.2426 10.7473L14.9899 14L18.2426 17.2526C18.516 17.526 18.516 17.9692 18.2426 18.2426Z" fill="#171F26"/>
</svg>
