<svg width="28" height="28" viewBox="0 0 28 28" fill="none" xmlns="http://www.w3.org/2000/svg">
<path d="M12.3077 18.5834H7.98291C6.6043 18.5834 5.42917 18.1367 4.4575 17.2432C3.48583 16.3496 3 15.269 3 14.0013C3 12.7336 3.48583 11.6526 4.4575 10.7582C5.42917 9.86391 6.6043 9.41675 7.98291 9.41675H12.3077V10.541H7.98291C6.94872 10.541 6.0634 10.8797 5.32693 11.5571C4.59046 12.2345 4.22222 13.0488 4.22222 14.0001C4.22222 14.9513 4.59046 15.7657 5.32693 16.4431C6.0634 17.1205 6.94872 17.4592 7.98291 17.4592H12.3077V18.5834ZM9.72222 14.5622V13.438H18.2778V14.5622H9.72222ZM15.6923 18.5834V17.4592H20.0171C21.0513 17.4592 21.9366 17.1205 22.6731 16.4431C23.4095 15.7657 23.7778 14.9513 23.7778 14.0001C23.7778 13.0488 23.4095 12.2345 22.6731 11.5571C21.9366 10.8797 21.0513 10.541 20.0171 10.541H15.6923V9.41675H20.0171C21.3957 9.41675 22.5708 9.8635 23.5425 10.757C24.5142 11.6505 25 12.7312 25 13.9989C25 15.2666 24.5142 16.3476 23.5425 17.2419C22.5708 18.1363 21.3957 18.5834 20.0171 18.5834H15.6923Z" fill="#E6E6E6"/>
</svg>
