<svg width="48" height="48" viewBox="0 0 48 48" fill="none" xmlns="http://www.w3.org/2000/svg">
<g id="Frame 82">
<g id="Group 29">
<rect id="Rectangle 96" x="8.5" y="41.1429" width="3.42858" height="3.42858" fill="#E6E6E6"/>
<rect id="Rectangle 111" x="35.9287" y="41.1429" width="3.42858" height="3.42858" fill="#E6E6E6"/>
<rect id="Rectangle 108" x="8.5" y="10.2858" width="3.42858" height="3.42858" fill="#E6E6E6"/>
<rect id="Rectangle 112" x="35.9287" y="10.2858" width="3.42858" height="3.42858" fill="#E6E6E6"/>
<rect id="Rectangle 97" x="8.5" y="37.7144" width="3.42858" height="3.42858" fill="#E6E6E6"/>
<rect id="Rectangle 113" x="35.9287" y="37.7144" width="3.42858" height="3.42858" fill="#E6E6E6"/>
<rect id="Rectangle 109" x="8.5" y="6.85718" width="3.42858" height="3.42858" fill="#E6E6E6"/>
<rect id="Rectangle 114" x="35.9287" y="6.85718" width="3.42858" height="3.42858" fill="#E6E6E6"/>
<rect id="Rectangle 98" x="8.5" y="34.2858" width="3.42858" height="3.42858" fill="#E6E6E6"/>
<rect id="Rectangle 115" x="35.9287" y="34.2858" width="3.42858" height="3.42858" fill="#E6E6E6"/>
<rect id="Rectangle 110" x="8.5" y="3.42859" width="3.42858" height="3.42858" fill="#E6E6E6"/>
<rect id="Rectangle 116" x="35.9287" y="3.42859" width="3.42858" height="3.42858" fill="#E6E6E6"/>
<rect id="Rectangle 123" x="5.07153" width="37.7143" height="3.42858" fill="#E6E6E6"/>
<rect id="Rectangle 124" x="5.07153" y="44.5714" width="37.7143" height="3.42858" fill="#E6E6E6"/>
<rect id="Rectangle 102" x="11.9287" y="30.8572" width="3.42858" height="3.42858" fill="#E6E6E6"/>
<rect id="Rectangle 117" x="32.5" y="30.8572" width="3.42858" height="3.42858" fill="#E6E6E6"/>
<rect id="Rectangle 107" x="11.9287" y="13.7144" width="3.42858" height="3.42858" fill="#E6E6E6"/>
<rect id="Rectangle 118" x="32.5" y="13.7144" width="3.42858" height="3.42858" fill="#E6E6E6"/>
<rect id="Rectangle 103" x="15.3572" y="27.4286" width="3.42858" height="3.42858" fill="#E6E6E6"/>
<rect id="Rectangle 119" x="29.0715" y="27.4286" width="3.42858" height="3.42858" fill="#E6E6E6"/>
<rect id="Rectangle 106" x="15.3572" y="17.1429" width="3.42858" height="3.42858" fill="#E6E6E6"/>
<rect id="Rectangle 120" x="29.0715" y="17.1429" width="3.42858" height="3.42858" fill="#E6E6E6"/>
<rect id="Rectangle 125" x="22.2144" y="17.1429" width="3.42858" height="3.42858" fill="#5200FF"/>
<rect id="Rectangle 129" x="22.2144" y="41.1429" width="3.42858" height="3.42858" fill="#5200FF"/>
<rect id="Rectangle 136" x="18.7859" y="37.7144" width="3.42858" height="3.42858" fill="#5200FF"/>
<rect id="Rectangle 137" x="15.3572" y="41.1429" width="3.42858" height="3.42858" fill="#5200FF"/>
<rect id="Rectangle 134" x="25.6431" y="37.7144" width="3.42858" height="3.42858" fill="#5200FF"/>
<rect id="Rectangle 135" x="29.0715" y="41.1429" width="3.42858" height="3.42858" fill="#5200FF"/>
<rect id="Rectangle 131" x="22.2144" y="34.2858" width="3.42858" height="3.42858" fill="#5200FF"/>
<rect id="Rectangle 126" x="22.2144" y="13.7144" width="3.42858" height="3.42858" fill="#5200FF"/>
<rect id="Rectangle 127" x="18.7859" y="13.7144" width="3.42858" height="3.42858" fill="#5200FF"/>
<rect id="Rectangle 128" x="25.6431" y="13.7144" width="3.42858" height="3.42858" fill="#5200FF"/>
<rect id="Rectangle 104" x="18.7859" y="24" width="3.42858" height="3.42858" fill="#E6E6E6"/>
<rect id="Rectangle 121" x="25.6431" y="24" width="3.42858" height="3.42858" fill="#E6E6E6"/>
<rect id="Rectangle 105" x="18.7859" y="20.5714" width="3.42858" height="3.42858" fill="#E6E6E6"/>
<rect id="Rectangle 122" x="25.6431" y="20.5714" width="3.42858" height="3.42858" fill="#E6E6E6"/>
</g>
</g>
</svg>
