# File exported by Houdini 17.5.229 (www.sidefx.com)
# 8 points
# 24 vertices
# 6 primitives
# Bounds: [0.00702784956, -0.0365424789, -0.0371687301] to [0.123394333, 0.00823040027, 0.0135612683]
g 
v 0.00702784956 0.00635451404 -0.000798645604
v 0.121315435 -0.0310925432 -0.0371687301
v 0.117269315 -0.0365424789 -0.0359136648
v 0.00702784956 -0.0165034365 0.00932628661
v 0.00910675153 0.00823040027 0.00343633606
v 0.123394333 -0.0292166527 -0.0329337493
v 0.119348221 -0.0346665941 -0.0316786841
v 0.00910675153 -0.0146275489 0.0135612683
vt 0.604718268 0.982646048 0
vt 0 0.790204704 0
vt 0.0109998826 0.767796576 0
vt 0.615718126 0.96023792 0
vt 0.644480348 0.42736128 0
vt 0.651121199 0.456197977 0
vt 0.628713071 0.46612367 0
vt 0.62207222 0.437286973 0
vt 0 0.23937355 0
vt 0.583309472 0 0
vt 0.59430933 0.0224081278 0
vt 0.0109998826 0.261781693 0
vt 0.62207222 0.400081605 0
vt 0.675645292 0.279135644 0
vt 0.69805342 0.289061368 0
vt 0.644480348 0.410007298 0
vt 0.0214088149 0.52346617 0
vt 0.604718268 0.629496753 0
vt 0.604718268 0.750442624 0
vt 0 0.552302778 0
vt 0.604718268 0.307972372 0
vt 0 0.506112158 0
vt 0 0.385166228 0
vt 0.583309472 0.279135644 0
vn 0.141685307 0.87746942 -0.458227664
vn 0.141685501 0.877469659 -0.458227217
vn 0.141685516 0.877469718 -0.458227247
vn 0.141685292 0.87746942 -0.458227664
vn 0.38626343 -0.898538709 0.208395824
vn 0.784651697 -0.609106719 -0.115371838
vn 0.784651816 -0.609106541 -0.115372039
vn 0.500344217 -0.855499089 0.133330494
vn 4.55425848e-08 -0.914317846 0.404997379
vn 0.38626343 -0.898538709 0.208395824
vn 0.500344217 -0.855499089 0.133330494
vn 4.55425884e-08 -0.914317906 0.404997349
vn -0.91232127 0.165836319 0.374390423
vn -0.91232127 0.165836319 0.374390423
vn -0.91232127 0.165836319 0.374390423
vn -0.91232127 0.165836319 0.374390423
vn -0.369472474 0.0607652515 -0.927252591
vn -0.409475297 -0.369487643 -0.834151685
vn -0.390100092 -0.372910321 -0.841878712
vn -0.301882148 0.00457882555 -0.953334272
vn 0.301882178 -0.00457882369 0.953334272
vn 0.390100032 0.372910321 0.841878712
vn 0.409475297 0.369487643 0.834151685
vn 0.369472563 -0.0607652366 0.927252769
g 
f 2/1/1 1/2/2 5/3/3 6/4/4
f 3/5/5 2/6/6 6/7/7 7/8/8
f 4/9/9 3/10/10 7/11/11 8/12/12
f 1/13/13 4/14/14 8/15/15 5/16/16
f 3/17/17 4/18/18 1/19/19 2/20/20
f 6/21/21 5/22/22 8/23/23 7/24/24
