<svg width="32" height="32" viewBox="0 0 32 32" fill="none" xmlns="http://www.w3.org/2000/svg">
<g id="telegram-icon">
<g id="Group 24">
<path id="Vector" d="M12.9061 19.6918L12.316 25.9634C12.316 25.9634 12.069 27.8851 13.9903 25.9634C15.9115 24.0417 17.7505 22.5599 17.7505 22.5599" fill="#E6E6E6"/>
<path id="Vector_2" d="M8.88415 17.8131L2.56066 15.7528C2.56066 15.7528 1.80493 15.4462 2.04828 14.7509C2.09837 14.6075 2.19942 14.4855 2.50171 14.2759C3.90283 13.2993 28.4352 4.48167 28.4352 4.48167C28.4352 4.48167 29.1279 4.24825 29.5364 4.4035C29.6375 4.43479 29.7284 4.49235 29.7999 4.57032C29.8714 4.64828 29.921 4.74384 29.9434 4.84722C29.9876 5.02982 30.006 5.21768 29.9983 5.40538C29.9963 5.56775 29.9767 5.71825 29.9618 5.95425C29.8124 8.36502 25.3411 26.3573 25.3411 26.3573C25.3411 26.3573 25.0735 27.4102 24.1151 27.4462C23.8795 27.4539 23.6448 27.414 23.425 27.3289C23.2052 27.2439 23.0048 27.1155 22.8357 26.9513C20.9548 25.3334 14.4538 20.9645 13.0173 20.0036C12.9849 19.9816 12.9576 19.9528 12.9373 19.9193C12.917 19.8857 12.904 19.8482 12.8994 19.8093C12.8793 19.708 12.9895 19.5826 12.9895 19.5826C12.9895 19.5826 24.3094 9.52063 24.6106 8.46434C24.6339 8.38251 24.5458 8.34213 24.4275 8.37797C23.6757 8.65457 10.6422 16.8853 9.20371 17.7937C9.10017 17.825 8.99073 17.8317 8.88415 17.8131Z" fill="#E6E6E6"/>
</g>
</g>
</svg>
