<svg width="28" height="28" viewBox="0 0 28 28" fill="none" xmlns="http://www.w3.org/2000/svg">
<path d="M14.6209 16.3149L14.2626 20.1227C14.2626 20.1227 14.1126 21.2895 15.2791 20.1227C16.4456 18.956 17.5622 18.0563 17.5622 18.0563" fill="#E6E6E6"/>
<path d="M12.1797 15.1739L8.3404 13.923C8.3404 13.923 7.88157 13.7368 8.02931 13.3147C8.05973 13.2277 8.12108 13.1536 8.30461 13.0263C9.15529 12.4333 24.05 7.07981 24.05 7.07981C24.05 7.07981 24.4705 6.93809 24.7185 7.03235C24.7799 7.05134 24.8351 7.0863 24.8785 7.13363C24.922 7.18097 24.952 7.23898 24.9657 7.30175C24.9925 7.41261 25.0037 7.52667 24.999 7.64063C24.9978 7.73922 24.9858 7.83059 24.9768 7.97388C24.8861 9.43756 22.1714 20.3615 22.1714 20.3615C22.1714 20.3615 22.0089 21.0007 21.427 21.0226C21.284 21.0272 21.1415 21.003 21.0081 20.9514C20.8746 20.8997 20.7529 20.8218 20.6503 20.7221C19.5083 19.7398 15.5613 17.0872 14.6891 16.5039C14.6694 16.4905 14.6528 16.473 14.6405 16.4526C14.6282 16.4323 14.6203 16.4095 14.6175 16.3859C14.6053 16.3244 14.6722 16.2482 14.6722 16.2482C14.6722 16.2482 21.545 10.1392 21.7279 9.49786C21.742 9.44818 21.6885 9.42366 21.6167 9.44542C21.1602 9.61336 13.247 14.6106 12.3737 15.1621C12.3108 15.1811 12.2444 15.1852 12.1797 15.1739Z" fill="#E6E6E6"/>
</svg>
